<?xml version="1.0" encoding="UTF-8" standalone="no"?>
<!-- Created with Inkscape (http://www.inkscape.org/) -->

<svg
   width="1920"
   height="1080"
   viewBox="0 0 508 285.75"
   version="1.1"
   id="svg5"
   inkscape:version="1.1 (c4e8f9e, 2021-05-24)"
   sodipodi:docname="bg-swoop.svg"
   xmlns:inkscape="http://www.inkscape.org/namespaces/inkscape"
   xmlns:sodipodi="http://sodipodi.sourceforge.net/DTD/sodipodi-0.dtd"
   xmlns:xlink="http://www.w3.org/1999/xlink"
   xmlns="http://www.w3.org/2000/svg"
   xmlns:svg="http://www.w3.org/2000/svg">
  <sodipodi:namedview
     id="namedview7"
     pagecolor="#ffffff"
     bordercolor="#666666"
     borderopacity="1.0"
     inkscape:pageshadow="2"
     inkscape:pageopacity="0.0"
     inkscape:pagecheckerboard="0"
     inkscape:document-units="px"
     showgrid="false"
     inkscape:zoom="0.23113069"
     inkscape:cx="447.7986"
     inkscape:cy="1096.7821"
     inkscape:window-width="1280"
     inkscape:window-height="667"
     inkscape:window-x="0"
     inkscape:window-y="25"
     inkscape:window-maximized="0"
     inkscape:current-layer="layer4" />
  <defs
     id="defs2">
    <linearGradient
       inkscape:collect="always"
       id="linearGradient2794">
      <stop
         style="stop-color:#fff7a3;stop-opacity:1;"
         offset="0"
         id="stop2790" />
      <stop
         style="stop-color:#fff7a3;stop-opacity:0;"
         offset="1"
         id="stop2792" />
    </linearGradient>
    <linearGradient
       inkscape:collect="always"
       xlink:href="#linearGradient2794"
       id="linearGradient2796"
       x1="-238.14672"
       y1="757.00278"
       x2="2063.5711"
       y2="757.00278"
       gradientUnits="userSpaceOnUse" />
  </defs>
  <g
     inkscape:groupmode="layer"
     id="layer3"
     inkscape:label="undulations"
     style="display:none">
    <path
       style="fill:#000000;fill-opacity:1;fill-rule:nonzero;stroke:none;stroke-width:0.264583"
       id="path168"
       d="m -92.365575,233.80067 c 15.739938,-8.49591 33.022966,-14.69799 50.726472,-17.55169 12.906494,-2.08045 16.964269,-1.46767 29.897573,-1.28579 19.7305295,1.04058 39.240136,6.15168 59.095866,4.71518 11.78524,-0.85263 13.830615,-2.16085 24.731358,-5.58885 10.906593,-5.01156 20.173643,-11.88654 28.121976,-20.84397 1.82097,-2.05216 3.3968,-4.3109 5.17098,-6.40364 4.87893,-5.75496 4.49898,-5.10851 9.87023,-10.04622 11.33304,-8.75923 20.42,-7.88255 34.11875,-6.27591 21.60463,3.38714 42.85781,9.53509 64.83192,10.39798 5.29289,0.20785 10.59256,-0.17074 15.88884,-0.25611 23.22515,-1.43284 45.91102,-7.09911 68.28943,-13.17674 20.84612,-7.17146 40.44196,-17.42244 60.359,-26.7679 18.03278,-8.69629 37.15644,-14.62567 56.5273,-19.46168 7.73253,-2.21729 15.61949,-4.30334 22.97631,-7.62662 4.83928,-2.18603 8.8842,-4.78223 13.51695,-7.50235 4.05792,-2.83345 8.52141,-5.76538 10.88904,-10.290976 0.8913,-1.703702 1.32122,-3.529475 1.85642,-5.358463 2.12579,-7.554029 5.44883,-15.178463 11.86542,-20.09204 1.43772,-1.100937 3.09949,-1.873367 4.64923,-2.810052 0.65781,0.06031 1.3144,0.225864 1.97343,0.180914 1.8234,-0.124368 3.61698,-0.553487 5.43975,-0.686541 5.89,-0.429932 11.70837,0.34096 17.59966,-0.267264 8.81306,-2.168228 11.08009,-8.112736 14.21958,-15.514415 1.41637,-3.280926 3.17767,-6.390118 4.92876,-9.498496 0,0 -3.52282,1.574281 -3.52282,1.574281 v 0 c -1.73302,3.122978 -3.47649,6.246032 -4.89653,9.52881 -0.83331,1.938774 -1.86622,4.463317 -2.87108,6.33926 -0.46842,0.874485 -0.96816,1.735966 -1.53918,2.547186 -0.52653,0.748001 -1.49778,1.237364 -1.74472,2.118128 -0.11454,0.408556 1.6288,-0.464725 1.23611,-0.303999 -0.88466,0.36208 -1.81274,0.60732 -2.71913,0.910979 -10.80034,1.277491 -21.713,-1.777317 -31.61112,4.428559 -1.53945,0.962012 -3.19209,1.763025 -4.61832,2.886041 -6.38937,5.030909 -9.6928,12.7236 -11.88731,20.314874 -0.56576,1.851229 -0.97441,3.547256 -1.9064,5.258078 -2.41025,4.424366 -6.82371,7.298816 -10.84115,10.084266 -9.12095,5.81059 -19.784,8.53548 -30.05626,11.53408 -19.44307,4.88835 -38.64613,10.85904 -56.76546,19.55997 -19.86992,9.31607 -39.42569,19.50775 -60.19744,26.71867 -22.43508,6.1538 -45.18888,11.91707 -68.48117,13.42804 -5.28109,0.0899 -10.56537,0.47392 -15.84327,0.26968 -21.90861,-0.84779 -43.08114,-7.02994 -64.58994,-10.55947 -5.49996,-0.69387 -9.96866,-1.53898 -15.47441,-1.2672 -9.49169,0.46855 -17.57934,5.53226 -25.02747,11.04048 -5.39126,5.01944 -4.87864,4.2498 -9.79057,10.07071 -7.079039,8.38905 -3.321705,4.96471 -11.869463,13.34094 -1.727417,1.69276 -3.363759,3.52789 -5.368129,4.88136 -3.141514,2.12133 -6.645121,3.64952 -9.967682,5.47428 -10.875912,3.48773 -12.974717,4.8318 -24.747109,5.73021 -19.860487,1.51565 -39.37852,-3.61704 -59.1088231,-4.69785 -12.9338569,-0.20004 -17.0582619,-0.81909 -29.9680339,1.2411 -20.065841,3.20218 -39.444278,10.56849 -56.846821,20.94391 0,0 3.479456,-1.38373 3.479456,-1.38373 z" />
    <path
       style="fill:#000000;fill-opacity:1;fill-rule:nonzero;stroke:none;stroke-width:0.264583"
       id="path170"
       d="m 598.11163,33.703916 c 10.03609,0.66303 18.899,5.074951 25.63169,12.548171 1.89315,2.101387 3.48594,4.455075 5.22891,6.682616 1.48008,2.206818 2.96016,4.413636 4.44026,6.620454 0,0 3.14741,-1.846035 3.14741,-1.846035 v 0 c -1.49098,-2.210133 -2.98194,-4.420264 -4.47292,-6.630397 -1.74122,-2.249207 -3.33383,-4.62176 -5.22364,-6.747627 -6.6997,-7.536471 -15.52554,-12.068751 -25.57968,-12.89174 0,0 -3.17203,2.264558 -3.17203,2.264558 z" />
  </g>
  <g
     inkscape:groupmode="layer"
     id="layer4"
     inkscape:label="undulations 1"
     style="opacity:0.5755627">
    <path
       style="fill:#ffb380;stroke:#000000;stroke-width:0.264583px;stroke-linecap:butt;stroke-linejoin:miter;stroke-opacity:1;fill-opacity:0.56854838;opacity:0.82958199"
       d="m -51.513062,224.36801 c 0,0 53.8025315,-96.15772 132.789227,-40.06572 78.986695,56.092 201.473325,4.57894 201.473325,4.57894 0,0 129.355,-92.723515 179.72333,-62.96041 50.36833,29.7631 84.71038,-36.631511 84.71038,-36.631511 l 1.14474,321.670461 -603.275206,-1.14475 z"
       id="path1287" />
  </g>
  <g
     inkscape:label="Layer 1"
     inkscape:groupmode="layer"
     id="layer1">
    <path
       style="fill:none;stroke:#000000;stroke-width:0.264583px;stroke-linecap:butt;stroke-linejoin:miter;stroke-opacity:1;opacity:0.23151125"
       d="m -21.091665,264.60452 c 0,0 514.828395,-29.72006 567.557555,-208.999219"
       id="path289" />
    <path
       style="fill:none;stroke:#000000;stroke-width:0.264583px;stroke-linecap:butt;stroke-linejoin:miter;stroke-opacity:1;opacity:0.23151125"
       d="M 546.46589,55.605301 V 339.38408 l -610.6996,0.95872 43.142045,-75.73828"
       id="path291" />
    <path
       style="fill:url(#linearGradient2796);stroke:none;stroke-width:3.62348;fill-opacity:1;opacity:0.04180064"
       d="m -231.77893,1273.3491 c 3.50229,-6.8082 39.68024,-70.6712 80.39545,-141.9179 58.079573,-101.6321 75.570347,-129.5393 81.18853,-129.5393 18.109599,0 188.47406,-15.74013 275.94636,-25.4949 521.55774,-58.16332 964.35619,-156.55156 1290.74529,-286.79899 74.9251,-29.89928 203.8354,-93.89412 263.2086,-130.66441 68.1408,-42.20016 113.6813,-77.04272 162.0744,-124.00129 66.5479,-64.57528 104.0806,-117.2091 133.151,-186.72402 l 8.3341,-19.92913 0.1533,526.31029 0.153,526.31025 h -468.3346 c -257.584,6e-4 -775.47056,1.0868 -1150.8589,2.4139 l -682.52432,2.4128 z"
       id="path352"
       transform="scale(0.26458333)" />
  </g>
</svg>
